<svg width="28" height="28" viewBox="0 0 28 28" fill="none" xmlns="http://www.w3.org/2000/svg">
<g clip-path="url(#clip0_1201_240)">
<path d="M20.4167 2.23657C19.103 2.25701 17.8179 2.62373 16.6913 3.29972C15.5646 3.97571 14.6363 4.93702 14 6.08657C13.3638 4.93702 12.4355 3.97571 11.3088 3.29972C10.1822 2.62373 8.89709 2.25701 7.58337 2.23657C5.48913 2.32756 3.51602 3.2437 2.09511 4.78484C0.674202 6.32598 -0.0790096 8.36685 3.27192e-05 10.4616C3.27192e-05 15.7664 5.5837 21.5601 10.2667 25.4882C11.3123 26.3669 12.6343 26.8486 14 26.8486C15.3658 26.8486 16.6878 26.3669 17.7334 25.4882C22.4164 21.5601 28 15.7664 28 10.4616C28.0791 8.36685 27.3259 6.32598 25.905 4.78484C24.484 3.2437 22.5109 2.32756 20.4167 2.23657ZM16.2342 23.7032C15.6088 24.2298 14.8176 24.5186 14 24.5186C13.1825 24.5186 12.3912 24.2298 11.7659 23.7032C5.77153 18.6737 2.33337 13.8484 2.33337 10.4616C2.25361 8.98541 2.76079 7.53759 3.74429 6.43389C4.72779 5.33019 6.10781 4.66015 7.58337 4.56991C9.05893 4.66015 10.4389 5.33019 11.4224 6.43389C12.4059 7.53759 12.9131 8.98541 12.8334 10.4616C12.8334 10.771 12.9563 11.0677 13.1751 11.2865C13.3939 11.5053 13.6906 11.6282 14 11.6282C14.3095 11.6282 14.6062 11.5053 14.825 11.2865C15.0438 11.0677 15.1667 10.771 15.1667 10.4616C15.0869 8.98541 15.5941 7.53759 16.5776 6.43389C17.5611 5.33019 18.9411 4.66015 20.4167 4.56991C21.8923 4.66015 23.2723 5.33019 24.2558 6.43389C25.2393 7.53759 25.7465 8.98541 25.6667 10.4616C25.6667 13.8484 22.2285 18.6737 16.2342 23.6986V23.7032Z" fill="#2F1C1C"/>
</g>
<defs>
<clipPath id="clip0_1201_240">
<rect width="28" height="28" fill="white"/>
</clipPath>
</defs>
</svg>
